<svg width="12" height="15" viewBox="0 0 12 15" fill="none" xmlns="http://www.w3.org/2000/svg">
<path fill-rule="evenodd" clip-rule="evenodd" d="M0 5.66666C0 2.11967 2.87136 0 5.64706 0C8.42275 0 11.2941 2.11967 11.2941 5.66666C11.2941 9.42834 6.10314 14.6807 5.88191 14.9023C5.81979 14.965 5.73509 15 5.64706 15C5.55903 15 5.47433 14.965 5.4122 14.9023C5.19098 14.6807 0 9.42834 0 5.66666ZM3.53005 5.71003C3.53005 6.89614 4.47981 7.86072 5.64769 7.86072C6.81558 7.86072 7.76534 6.89614 7.76534 5.71003C7.76534 4.52393 6.81558 3.55934 5.64769 3.55934C4.47981 3.55934 3.53005 4.52393 3.53005 5.71003Z" fill="black"/>
</svg>
