<svg width="120" height="45" viewBox="0 0 120 45" fill="none" xmlns="http://www.w3.org/2000/svg">
<path d="M48.7775 34.2118C48.7775 33.2423 49.4119 32.8092 50.2644 32.8092C50.7204 32.8092 51.0575 32.9123 51.3549 33.0567V29.942C50.8989 29.7151 50.2644 29.5913 49.6102 29.5913C46.8147 29.5913 45.1691 31.3034 45.1691 34.1293V34.3975H43.8408V37.4297H45.1691V44.7111H48.7775V37.4297H51.2161V34.3975H48.7775V34.2118Z" fill="black"/>
<path d="M56.2916 44.7112V34.3976H52.6634V44.7112H56.2916ZM56.5097 31.4891C56.5097 30.3752 55.6175 29.4058 54.4676 29.4058C53.3573 29.4058 52.4453 30.3546 52.4453 31.4891C52.4453 32.6236 53.3573 33.5725 54.4676 33.5725C55.6175 33.5725 56.5097 32.603 56.5097 31.4891Z" fill="black"/>
<path d="M61.4005 39.2245C61.4005 38.1518 61.916 37.5537 62.709 37.5537C63.502 37.5537 63.9779 38.1312 63.9779 39.1832V44.7113H67.6061V38.1518C67.6061 35.6559 66.2975 34.1089 64.1563 34.1089C62.9469 34.1089 61.9556 34.6452 61.4005 35.6559V34.3977H57.7723V44.7113H61.4005V39.2245Z" fill="black"/>
<path d="M73.5394 34.1914C70.5405 34.1914 68.6171 36.8936 68.6171 39.5958C68.6171 42.6074 70.7267 45.0001 73.498 45.0001C75.5662 45.0001 76.3521 43.7419 76.3521 43.7419V44.732H79.8473V34.4389H76.3521V35.3672C76.3521 35.3672 75.4628 34.1914 73.5394 34.1914ZM74.2839 37.5124C75.6903 37.5124 76.3935 38.6057 76.3935 39.5958C76.3935 40.6684 75.6283 41.7204 74.2839 41.7204C73.1878 41.7204 72.1744 40.8128 72.1744 39.637C72.1744 38.4613 72.981 37.5124 74.2839 37.5124Z" fill="black"/>
<path d="M85.1918 39.2245C85.1918 38.1518 85.7073 37.5537 86.5003 37.5537C87.2934 37.5537 87.7692 38.1312 87.7692 39.1832V44.7113H91.3974V38.1518C91.3974 35.6559 90.0889 34.1089 87.9476 34.1089C86.7382 34.1089 85.7469 34.6452 85.1918 35.6559V34.3977H81.5636V44.7113H85.1918V39.2245Z" fill="black"/>
<path d="M92.468 39.5545C92.468 42.8961 94.7678 45.0001 97.7616 45.0001C98.5348 45.0001 99.3675 44.8351 100.141 44.4226V40.9984C99.5856 41.411 98.9908 41.6172 98.3365 41.6172C97.0676 41.6172 96.1358 40.7921 96.1358 39.5545C96.1358 38.3169 97.0676 37.4918 98.3365 37.4918C98.9709 37.4918 99.5657 37.6774 100.141 38.0693V34.6452C99.4468 34.2945 98.5943 34.1089 97.821 34.1089C94.7083 34.1089 92.468 36.3985 92.468 39.5545Z" fill="black"/>
<path d="M108.034 41.0809C107.657 41.7204 107.181 41.9885 106.388 41.9885C105.436 41.9885 104.643 41.3903 104.564 40.5034H111.424C111.444 40.3177 111.464 40.0702 111.464 39.7402C111.464 36.3366 109.382 34.1089 106.289 34.1089C103.295 34.1089 101.015 36.4398 101.015 39.5545C101.015 42.793 103.236 45.0001 106.408 45.0001C108.648 45.0001 110.333 44.01 111.146 42.2154L108.034 41.0809ZM104.584 38.3375C104.663 37.5743 105.337 36.9967 106.269 36.9967C107.201 36.9967 107.875 37.533 107.954 38.3375H104.584Z" fill="black"/>
<path d="M0 8.06982H7.13921L11.2963 18.6638L15.5073 8.06982H22.4585L11.9916 33.1492H4.99631L7.86147 26.5035L0 8.06982Z" fill="black"/>
<path d="M29.6998 7.64795C24.3358 7.64795 20.9448 12.4399 20.9448 17.2119C20.9448 22.5818 24.6626 26.8391 29.5981 26.8391C33.2797 26.8391 34.6679 24.6048 34.6679 24.6048V26.3453H40.8947V8.0698H34.6679V9.73121C34.6679 9.73121 33.1192 7.64795 29.6998 7.64795ZM31.0243 13.521C33.4993 13.521 34.7765 15.4717 34.7765 17.2319C34.7765 19.1274 33.4082 20.9874 31.0243 20.9874C29.0486 20.9874 27.2631 19.3791 27.2631 17.3126C27.2631 15.2169 28.6993 13.521 31.0243 13.521Z" fill="black"/>
<path d="M43.0391 26.3452V0H49.5519V9.79449C49.5519 9.79449 51.0989 7.65022 54.3388 7.65022C58.3018 7.65022 60.6237 10.5915 60.6237 14.7944V26.3452H54.1586V16.3767C54.1586 14.9544 53.4784 13.5803 51.9377 13.5803C50.3693 13.5803 49.5519 14.9752 49.5519 16.3767V26.3452H43.0391Z" fill="black"/>
<path d="M71.7279 7.6499C65.5851 7.6499 61.9273 12.3027 61.9273 17.2877C61.9273 22.9607 66.356 26.8389 71.7511 26.8389C76.9803 26.8389 81.556 23.1367 81.556 17.3829C81.556 11.0871 76.7651 7.6499 71.7279 7.6499ZM71.7865 13.5745C73.9564 13.5745 75.4577 15.3748 75.4577 17.2945C75.4577 18.9318 74.0588 20.9514 71.7865 20.9514C69.7045 20.9514 68.142 19.2878 68.142 17.2766C68.142 15.3391 69.4411 13.5745 71.7865 13.5745Z" fill="black"/>
<path d="M92.406 7.6499C86.2632 7.6499 82.6055 12.3027 82.6055 17.2877C82.6055 22.9607 87.0342 26.8389 92.4293 26.8389C97.6585 26.8389 102.234 23.1367 102.234 17.3829C102.234 11.0871 97.4433 7.6499 92.406 7.6499ZM92.4647 13.5745C94.6346 13.5745 96.1359 15.3748 96.1359 17.2945C96.1359 18.9318 94.7369 20.9514 92.4647 20.9514C90.3827 20.9514 88.8202 19.2878 88.8202 17.2766C88.8202 15.3391 90.1192 13.5745 92.4647 13.5745Z" fill="black"/>
<path d="M107.373 26.7329C109.762 26.7329 111.698 24.8042 111.698 22.4251C111.698 20.0459 109.762 18.1172 107.373 18.1172C104.985 18.1172 103.049 20.0459 103.049 22.4251C103.049 24.8042 104.985 26.7329 107.373 26.7329Z" fill="black"/>
<path d="M113.119 16.535H105.333L112.243 0H120L113.119 16.535Z" fill="black"/>
</svg>
