<svg width="120" height="31" viewBox="0 0 120 31" fill="none" xmlns="http://www.w3.org/2000/svg">
<g clip-path="url(#clip0_1:790)">
<path d="M11.5527 2.88848H14.1814C15.7823 2.65586 17.4172 2.86038 18.9085 3.47982C20.7795 4.59008 22.1366 6.37749 22.6902 8.46075C23.0822 9.55246 23.0822 9.55246 24.0277 9.16581H24.7656V0.523111H0.0230617V2.04696H1.03767C1.47857 2.04394 1.91455 2.1384 2.31359 2.32338C2.71263 2.50837 3.06458 2.77918 3.34358 3.11592C4.28901 4.61702 4.45042 6.30007 4.45042 15.0565C4.45042 24.3588 4.24289 26.6332 3.34358 27.7931C3.12157 28.0913 2.83413 28.3362 2.50272 28.5095C2.17131 28.6828 1.8045 28.78 1.42967 28.7938C0.0230617 29.044 0.0230617 29.0213 0.0230617 29.6354C-0.054725 29.8407 -0.054725 30.0668 0.0230617 30.2722H15.6341C15.7374 30.0713 15.7913 29.8492 15.7913 29.624C15.7913 29.3987 15.7374 29.1767 15.6341 28.9758C15.256 28.872 14.8707 28.796 14.4812 28.7483C14.0598 28.6989 13.6433 28.6152 13.236 28.4982C12.6526 28.0781 12.1905 27.5152 11.8953 26.865C11.6 26.2148 11.4819 25.4999 11.5527 24.7909C11.3221 23.2898 11.2068 20.5378 11.2068 18.2634V16.4666H12.1291C13.2783 16.4319 14.4268 16.5544 15.5419 16.8305C16.0761 17.1561 16.5308 17.594 16.8736 18.113C17.2164 18.632 17.4388 19.2192 17.525 19.8327L17.7325 20.5378H19.1391V10.4622H17.8478L17.6403 11.4402C17.553 12.0676 17.3176 12.6661 16.9532 13.1875C16.5887 13.7089 16.1054 14.1388 15.5419 14.4424C14.9962 14.6026 14.4213 14.6414 13.8586 14.5561H11.2068V12.0998C11.2068 9.55246 11.3451 4.18489 11.4374 3.34336L11.5527 2.88848ZM119.47 20.9244C118.38 19.1941 116.68 17.9223 114.696 17.3536C113.176 16.8849 111.771 16.1105 110.569 15.0792C110.298 14.8212 110.096 14.5019 109.979 14.1491C109.863 13.7962 109.836 13.4206 109.9 13.055C109.902 12.3379 110.192 11.6508 110.707 11.1445C111.056 10.7839 111.498 10.5237 111.985 10.3915C112.473 10.2593 112.987 10.2601 113.474 10.394C114.482 10.6774 115.394 11.2244 116.112 11.9771C116.831 12.7299 117.33 13.6603 117.556 14.6698C117.925 15.6933 117.971 15.6933 118.639 15.4204L119.055 15.2612V9.59795L118.755 9.46148C116.485 8.67506 114.077 8.35012 111.676 8.50624C109.608 8.55791 107.634 9.36898 106.141 10.7806C105.464 11.4058 104.934 12.1695 104.587 13.0181C104.241 13.8667 104.087 14.7797 104.135 15.6933C104.148 17.0901 104.71 18.4273 105.703 19.4233C106.801 20.4877 108.147 21.2689 109.623 21.6977C113.198 23.0851 114.235 23.9721 114.235 25.5869C114.251 26.2679 114.031 26.9338 113.612 27.4752C113.193 28.0167 112.599 28.4014 111.929 28.5664C111.124 28.7409 110.29 28.7409 109.485 28.5664C108.431 28.1628 107.49 27.5168 106.74 26.6821C105.99 25.8474 105.452 24.8482 105.173 23.7674L104.873 23.0396H104.458C104.26 23.0542 104.065 23.1002 103.882 23.1761H103.651V29.6354H104.043C105.601 30.1465 107.208 30.4971 108.839 30.6816H111.145C112.145 30.754 113.151 30.6617 114.12 30.4087C115.351 30.1847 116.5 29.647 117.455 28.849C118.41 28.051 119.136 27.0205 119.562 25.8599C119.837 25.2116 119.978 24.5157 119.977 23.8129C120.068 22.8229 119.893 21.8267 119.47 20.9244ZM97.7479 9.16581C96.3661 8.5936 94.8772 8.31602 93.379 8.3513C91.8808 8.38658 90.4071 8.73391 89.0546 9.37051C87.7832 9.98387 86.6564 10.8534 85.7469 11.9229C84.8373 12.9923 84.1652 14.2381 83.774 15.5796C83.2752 17.0431 83.0639 18.5869 83.1514 20.1284C83.1349 20.9671 83.2044 21.8053 83.3589 22.6302C83.7313 24.6585 84.7241 26.5259 86.2039 27.9814C87.6838 29.4369 89.5797 30.4109 91.6372 30.7726C92.977 30.9391 94.3327 30.9391 95.6725 30.7726C97.0629 30.5309 98.3935 30.0291 99.5926 29.2942C100.585 28.7457 101.424 27.9646 102.037 27.0198C101.998 26.8716 101.928 26.7327 101.833 26.6115C101.738 26.4904 101.619 26.3894 101.483 26.3147C101.22 26.4087 100.972 26.5389 100.746 26.7014C99.5986 27.4469 98.2443 27.8207 96.8716 27.7704C95.9605 27.8311 95.0472 27.6912 94.1977 27.3608C93.3482 27.0303 92.5838 26.5176 91.96 25.8599C91.4775 25.4178 91.0792 24.894 90.784 24.3133C90.0675 22.8994 89.6813 21.345 89.6541 19.7645V18.8775H102.429V18.4226C102.457 17.9681 102.457 17.5124 102.429 17.058C102.424 15.452 101.989 13.8759 101.167 12.4897C100.344 11.1035 99.1649 9.95674 97.7479 9.16581ZM91.3144 17.0352H89.7002V15.6933C90.2306 12.259 91.545 10.212 93.1591 10.212C94.7732 10.212 95.465 12.2362 95.7648 15.9435V16.9897H94.3812L91.3144 17.0352ZM58.1553 8.41526C57.3585 8.38478 56.5664 8.54885 55.8493 8.89288C54.2908 9.6394 53.032 10.881 52.2752 12.4182L51.9754 12.9641V8.41526H51.8601C51.5834 8.41526 43.0515 10.0983 42.7748 10.212C42.4981 10.3258 42.5903 10.3485 42.5903 10.7579C42.5903 11.1673 42.5903 11.2355 42.7748 11.2583L43.6741 11.4402C43.926 11.4463 44.1731 11.5089 44.3969 11.6231C44.6206 11.7374 44.815 11.9004 44.9654 12.0998C45.5419 12.8503 45.6572 14.1695 45.6572 19.7872C45.7711 22.3163 45.6631 24.8503 45.3344 27.361C45.257 27.7395 45.0623 28.0851 44.7773 28.3499C44.4923 28.6147 44.131 28.7857 43.7433 28.8393L42.9593 28.9985H42.6595V29.6354C42.5758 29.8475 42.5758 30.0828 42.6595 30.2949H55.5496V29.6354C55.5943 29.4177 55.5943 29.1934 55.5496 28.9758C54.7735 28.946 54.0017 28.847 53.2437 28.6801C52.8309 28.4671 52.4931 28.1358 52.275 27.7299C52.0568 27.3239 51.9685 26.8622 52.0215 26.4057C51.837 25.0866 51.7448 21.2201 51.7909 18.2634C51.837 15.3067 51.7909 15.1247 52.0446 14.92C52.8162 14.3365 53.771 14.0387 54.7425 14.0785C55.6582 14.0982 56.5573 14.3238 57.3713 14.7381C57.6534 14.8926 57.9561 15.0075 58.2706 15.0792C58.2706 15.0792 60.5765 9.5752 60.5765 9.32502C60.2814 8.9868 59.9055 8.7265 59.4827 8.56765C59.0599 8.4088 58.6037 8.35643 58.1553 8.41526ZM42.6134 17.9677C42.5329 16.3424 42.0598 14.7597 41.2335 13.3513C40.4073 11.9429 39.2517 10.7496 37.8632 9.87087C36.2131 8.99284 34.3772 8.50871 32.503 8.45736C30.6288 8.40601 28.7685 8.78887 27.0715 9.5752C24.6722 10.8231 22.8606 12.9444 22.0215 15.4886C21.1549 18.3371 21.1549 21.3738 22.0215 24.2223C22.4758 25.7791 23.325 27.1959 24.4889 28.339C25.9383 29.734 27.8074 30.6278 29.8155 30.8863C31.1046 30.9926 32.4004 30.9926 33.6895 30.8863C34.1638 30.8151 34.6335 30.7164 35.0961 30.5906C36.973 30.0727 38.6616 29.0384 39.9643 27.6085C41.267 26.1786 42.1298 24.4124 42.452 22.5165C42.6822 21.0113 42.7363 19.4851 42.6134 17.9677ZM33.0208 29.3397C30.7148 30.022 28.9854 27.8158 28.4089 23.1761C28.1972 20.747 28.1972 18.3044 28.4089 15.8753C28.8701 12.1453 30.0461 10.2575 31.8678 10.2575C32.2353 10.2351 32.603 10.2997 32.9399 10.4461C33.2769 10.5925 33.5735 10.8164 33.8048 11.099C35.3497 12.6229 36.1107 15.6478 36.1107 20.1966C36.3025 22.771 35.8923 25.3544 34.9116 27.7476C34.4786 28.4456 33.8086 28.9694 33.0208 29.226V29.3397ZM74.5273 8.87014C73.8766 8.78756 73.2179 8.78756 72.5672 8.87014C71.3183 8.86909 70.0836 9.13281 68.947 9.64343L68.2321 9.93911V5.00367C68.357 3.33805 68.357 1.66561 68.2321 0C67.9554 0 59.1468 1.66031 59.0085 1.72854C58.9404 1.89646 58.9404 2.08373 59.0085 2.25165C59.0085 2.72927 59.0085 2.70653 60.0461 2.93397C60.3375 2.99841 60.6173 3.10575 60.8762 3.25238C61.3264 3.66987 61.6259 4.22091 61.7294 4.82172C61.992 6.55258 62.077 8.30515 61.9831 10.0528V30.022L62.6057 30.1585C63.528 30.3632 66.1337 30.7953 66.9869 30.8863C68.6906 31.0199 70.4024 31.0199 72.1061 30.8863C73.9971 30.6958 75.7995 29.9999 77.3193 28.8737C78.839 27.7475 80.0183 26.2336 80.7302 24.4952C81.1546 23.3795 81.4486 22.2196 81.6064 21.0382C81.7437 19.4378 81.6895 17.8271 81.445 16.2392C81.1977 14.4593 80.4012 12.7975 79.1637 11.4793C77.9262 10.161 76.3075 9.25013 74.5273 8.87014ZM68.4858 28.953C68.4858 28.6574 68.2552 18.6955 68.3013 14.7153V11.5994L68.97 11.4402C69.4212 11.3764 69.8793 11.3764 70.3305 11.4402C70.8295 11.3902 71.3314 11.502 71.7602 11.7586C72.6213 12.3448 73.3364 13.1161 73.8517 14.0143C74.3669 14.9125 74.6689 15.9143 74.7348 16.9442C74.9028 18.6004 74.9028 20.269 74.7348 21.9252C74.5968 24.3323 73.6565 26.627 72.06 28.4527C71.6068 28.8772 71.0377 29.1618 70.4227 29.2715C69.9574 29.3513 69.4815 29.3513 69.0161 29.2715C68.578 29.2715 68.578 29.135 68.578 28.953H68.4858Z" fill="black"/>
</g>
<defs>
<clipPath id="clip0_1:790">
<rect width="120" height="31" fill="white"/>
</clipPath>
</defs>
</svg>
