<svg width="120" height="22" viewBox="0 0 120 22" fill="none" xmlns="http://www.w3.org/2000/svg">
<path d="M0 0H8.79752C10.4732 0 11.73 0.415967 12.661 1.10924C13.685 1.94118 14.2436 3.14286 14.2436 4.62185C14.2436 6.33193 13.5454 7.39496 12.149 8.04202V8.13445C14.0109 8.73529 15.0815 10.3992 15.0815 12.3866C15.0815 14.2815 14.3367 15.7605 13.1265 16.6849C12.1024 17.4244 10.7991 17.7479 9.03025 17.7479H0V0ZM7.91311 6.93277C8.84407 6.93277 9.54228 6.42437 9.54228 5.36134C9.54228 4.34454 8.84406 3.83613 7.86656 3.83613H4.84096V6.88655H7.91311V6.93277ZM8.33204 13.8193C9.40264 13.8193 10.1939 13.1723 10.1939 12.0168C10.1939 10.7689 9.35609 10.2143 8.33204 10.2143H4.88751V13.8655H8.33204V13.8193Z" fill="black"/>
<path d="M15.8728 0H20.481V17.7941H15.8728V0Z" fill="black"/>
<path d="M21.4119 11.4624C21.4119 7.44141 24.0186 4.76074 28.0683 4.76074C32.1179 4.76074 34.678 7.48763 34.678 11.4624C34.678 15.4834 32.1179 18.1641 28.0683 18.1641C24.0186 18.1641 21.4119 15.4834 21.4119 11.4624ZM30.0698 11.4624C30.0698 9.24393 29.3716 7.85738 27.9752 7.85738C26.5787 7.85738 25.9271 9.24393 25.9271 11.4624C25.9271 13.6809 26.5787 15.1137 27.9752 15.1137C29.3716 15.0675 30.0698 13.6809 30.0698 11.4624Z" fill="black"/>
<path d="M35.1901 11.4624C35.1901 7.44141 37.7967 4.76074 41.8464 4.76074C45.896 4.76074 48.4096 7.44141 48.4096 11.4624C48.4096 15.4834 45.8495 18.1641 41.7998 18.1641C37.7967 18.1641 35.1901 15.4834 35.1901 11.4624ZM43.8479 11.4624C43.8479 9.24393 43.1497 7.85738 41.7533 7.85738C40.3569 7.85738 39.7052 9.24393 39.7052 11.4624C39.7052 13.6809 40.3569 15.1137 41.7533 15.1137C43.1497 15.0675 43.8479 13.6809 43.8479 11.4624Z" fill="black"/>
<path d="M49.3406 5.0841H53.623V6.97906H53.7161C54.5539 5.50007 55.7176 4.71436 57.5795 4.71436C59.2087 4.71436 60.4189 5.50007 61.0241 6.88663H61.1171C62.1412 5.22276 63.4911 4.71436 65.0737 4.71436C68.0528 4.71436 69.3095 6.88662 69.3095 9.79839V17.748H64.841V10.5841C64.841 9.28999 64.422 8.45805 63.3049 8.45805C62.1877 8.45805 61.6292 9.47486 61.6292 10.8614V17.748H57.1606V10.5841C57.1606 9.28999 56.7417 8.45805 55.6245 8.45805C54.5074 8.45805 53.9488 9.47486 53.9488 10.8614V17.748H49.3406V5.0841Z" fill="black"/>
<path d="M74.9418 16.084H74.8953V17.7479H70.6129V0H75.0815V6.37815H75.1746C76.0124 5.26891 77.1761 4.66807 78.8053 4.66807C82.0171 4.66807 83.879 7.53361 83.879 11.3697C83.879 15.6681 81.8775 18.1639 78.526 18.1639C77.1296 18.1639 75.6866 17.5168 74.9418 16.084ZM79.2708 11.3235C79.2708 9.28992 78.526 7.94958 77.1761 7.94958C75.7797 7.94958 74.9418 9.28992 74.9418 11.3235C74.9418 13.3571 75.8262 14.6975 77.1761 14.6975C78.526 14.6975 79.2708 13.4034 79.2708 11.3235Z" fill="black"/>
<path d="M84.391 11.416C84.391 7.44125 87.0442 4.71436 90.8611 4.71436C92.7696 4.71436 94.2126 5.3152 95.3297 6.37822C96.8192 7.81099 97.4709 10.0295 97.4244 12.6177H88.8596C89.0458 14.1891 89.7905 15.0211 91.1404 15.0211C91.9317 15.0211 92.6299 14.6513 92.9092 13.8194H97.2382C96.4934 16.7312 94.2126 18.1639 91.0008 18.1639C87.0442 18.1177 84.391 15.437 84.391 11.416ZM88.8596 10.0757H92.9558C92.8627 8.55049 92.0248 7.76478 90.9542 7.76478C89.6974 7.71856 88.9992 8.59671 88.8596 10.0757Z" fill="black"/>
<path d="M102.498 7.25622H102.591C103.522 5.49992 104.732 4.80664 106.268 4.80664C106.641 4.80664 106.874 4.85286 107.013 4.9453V8.82765H106.92C104.267 8.36546 102.731 9.61336 102.731 12.4789V17.794H98.2157V5.08395H102.498V7.25622Z" fill="black"/>
<path d="M107.479 17.794H111.808C111.994 18.3486 112.552 18.857 113.623 18.857C115.066 18.857 115.578 17.9789 115.578 16.6386V15.7142H115.485C114.787 16.5461 113.809 17.147 112.413 17.147C109.666 17.147 107.246 15.1133 107.246 11.1386C107.246 7.4873 109.201 4.66797 112.18 4.66797C113.902 4.66797 114.926 5.36125 115.624 6.42427H115.718V5.03772H120V16.0377C120 18.0713 119.302 19.6428 118.231 20.5671C117.114 21.5377 115.531 21.9537 113.716 21.9537C110.272 21.9999 107.898 20.6133 107.479 17.794ZM115.764 10.9537C115.764 9.38226 115.019 8.08814 113.716 8.08814C112.459 8.08814 111.668 9.19738 111.668 10.9537C111.668 12.6638 112.459 13.8654 113.716 13.8654C114.973 13.8654 115.764 12.6175 115.764 10.9537Z" fill="black"/>
</svg>
