<svg width="120" height="62" viewBox="0 0 120 62" fill="none" xmlns="http://www.w3.org/2000/svg">
<path d="M119.666 61.7078L0.166765 61.8331L0.083374 18.8425L60 0.0419922L119.666 19.0097V61.7078Z" fill="black"/>
<path d="M20.0556 33.2558V31.5429C20.0556 29.7046 19.3051 29.1197 18.4295 29.4122C17.0952 29.83 16.6366 30.7491 16.6366 32.3785V43.4917C16.6366 45.1211 17.0535 45.7895 18.4295 45.3717C19.6386 44.9957 20.0556 44.0766 20.0556 42.6561V40.024L23.3912 38.9795V41.4863C23.3912 44.5779 21.7651 47.586 18.4295 48.6305C14.927 49.7167 13.3009 47.7114 13.3009 44.6197V33.3394C13.3009 30.2477 14.927 27.2397 18.4295 26.1534C21.7651 25.1089 23.3912 27.3232 23.3912 30.6238V32.2531L20.0556 33.2558Z" fill="white"/>
<path d="M29.9791 22.8532L33.3148 21.8087V38.3114C33.3148 39.9408 33.8985 40.5257 35.1077 40.1497C36.3169 39.7737 36.9006 38.8128 36.9006 37.1834V20.6807L40.2363 19.6362V36.0136C40.2363 39.7737 38.2766 42.4476 35.1077 43.4085C31.9388 44.3694 29.9791 42.9489 29.9791 39.1888V22.8532Z" fill="white"/>
<path d="M50.2015 26.3624L51.369 25.9864C53.1619 25.4433 53.829 24.4406 53.829 21.8503C53.829 19.26 53.1619 18.7169 51.369 19.26L50.2015 19.636V26.3624ZM50.2015 38.4366L46.8658 39.481V17.5889L51.5358 16.1266C55.2884 14.9568 57.1647 16.1684 57.1647 20.8058C57.1647 24.3153 55.9555 26.1118 54.8297 27.0727L57.665 36.0969L54.246 37.1414L51.8693 28.8274C51.4524 29.0363 50.7435 29.2452 50.1598 29.4541L50.2015 38.4366Z" fill="white"/>
<path d="M67.2967 34.5511L68.6727 34.9689C70.4656 35.512 71.091 34.5928 71.091 32.3786C71.091 30.1225 70.3405 28.7856 68.3391 28.1589L67.255 27.8247L67.2967 34.5511ZM67.2967 24.733L68.5059 25.109C69.7984 25.485 70.7574 24.8583 70.7574 23.0201C70.7574 21.0147 70.0486 19.7195 68.5893 19.26L67.2967 18.884V24.733ZM63.9611 14.7061L68.9228 16.2519C72.5087 17.3799 74.0931 19.9284 74.0931 23.6468C74.0931 25.5268 73.3843 27.2815 71.7998 27.4904C73.5094 28.8691 74.5101 30.7074 74.5101 33.5066C74.5101 37.0996 73.0924 39.3974 69.2981 38.1858L64.0028 36.5147L63.9611 14.7061Z" fill="white"/>
<path d="M80.8478 41.9044V20.0122L89.7706 22.8114V26.0702L84.1834 24.3154V29.9556L88.4781 31.2925V34.5513L84.1834 33.2144V39.6483L90.1459 41.5284V44.7871L80.8478 41.9044Z" fill="white"/>
<path d="M99.7777 44.7454L100.945 45.1214C102.738 45.6645 103.363 45.1214 103.363 42.8236V33.2562C103.363 30.9583 102.738 29.9974 100.945 29.4543L99.7777 29.0783V44.7454ZM96.442 24.9004L101.404 26.4462C104.823 27.5325 106.699 30.2063 106.699 34.7185V43.3667C106.699 47.8371 104.865 49.4247 101.404 48.3384L96.442 46.7926V24.9004Z" fill="white"/>
<path d="M60 0L59.0827 0.292453L2.16817 18.0903L0 18.7588V61.9582H119.958V18.7588L117.79 18.0903L60.9173 0.292453L60 0ZM60 3.25876L116.915 21.0566V58.9084H3.12717V21.0148L60 3.25876Z" fill="white"/>
</svg>
